<?xml version="1.0" encoding="iso-8859-1"?>
<!-- Uploaded to: SVG Repo, www.svgrepo.com, Generator: SVG Repo Mixer Tools -->
<svg fill="#000000" height="800px" width="800px" version="1.1" id="Layer_1" xmlns="http://www.w3.org/2000/svg" xmlns:xlink="http://www.w3.org/1999/xlink" 
	 viewBox="0 0 512 512" xml:space="preserve">
<g>
	<g>
		<path d="M486.4,290.133h-59.733V55.467c0-7.066-5.726-12.8-12.8-12.8c-7.074,0-12.8,5.734-12.8,12.8v234.667H110.933V55.467
			c0-7.066-5.726-12.8-12.8-12.8c-7.074,0-12.8,5.734-12.8,12.8v234.667H25.6c-14.14,0-25.6,11.46-25.6,25.6v128
			c0,14.14,11.46,25.6,25.6,25.6h460.8c14.14,0,25.6-11.46,25.6-25.6v-128C512,301.594,500.54,290.133,486.4,290.133z
			 M486.4,443.733H25.6v-128h460.8V443.733z"/>
	</g>
</g>
<g>
	<g>
		<circle cx="311.467" cy="379.733" r="12.8"/>
	</g>
</g>
<g>
	<g>
		<circle cx="362.667" cy="379.733" r="12.8"/>
	</g>
</g>
<g>
	<g>
		<circle cx="413.867" cy="379.733" r="12.8"/>
	</g>
</g>
</svg>